<svg preserveAspectRatio="none" width="100%" height="100%" overflow="visible" style="display: block;" viewBox="0 0 32.0005 39.0002" fill="none" xmlns="http://www.w3.org/2000/svg">
<g id="Frame 1">
<g id="image 3 (Traced)">
<path fill-rule="evenodd" clip-rule="evenodd" d="M0.00193343 12.4049C0.00290067 19.2276 0.143474 25.6657 0.314676 26.7121C0.974015 30.7489 3.89928 35.1109 7.25433 37.0598C9.82108 38.5511 11.4057 38.8323 17.8137 38.9331C21.1388 38.9855 23.8593 38.9538 23.859 38.8623C23.8587 38.7709 23.1442 38.3563 22.2711 37.9407C20.5665 37.1296 17.8337 34.5663 16.7124 32.727C14.9268 29.7979 14.7379 28.6333 14.5364 19.309L14.3767 11.9303C14.3575 11.0387 14.1437 10.1621 13.7505 9.36169L13.2835 8.41102C10.9879 3.73791 6.65077 0.53514 2.12439 0.170948L0 0L0.00193343 12.4049Z" fill="var(--fill-0, #195134)"/>
<path d="M30.376 38.9331C22.884 39.6547 16.4361 34.4659 15.3353 26.8294L15.1138 25.2945H17.5178C20.394 25.2945 23.4134 26.1508 25.5588 27.575C28.8207 29.7407 31.4858 33.7827 31.8253 37.0792L32 38.7767L30.376 38.9331Z" fill="#FECD03"/>
</g>
</g>
</svg>
