<svg preserveAspectRatio="none" width="100%" height="100%" overflow="visible" style="display: block;" viewBox="0 0 30 30" fill="none" xmlns="http://www.w3.org/2000/svg">
<g id="66222bd9cde825c4cfd517de_reddit.svg">
<path id="Vector" d="M15 3C8.3725 3 3 8.3725 3 15C3 21.6275 8.3725 27 15 27C21.6275 27 27 21.6275 27 15C27 8.3725 21.6275 3 15 3ZM15.834 7.79297C15.8815 7.78434 15.9314 7.78477 15.9814 7.7959L18.9229 8.38379C19.1104 8.05579 19.4501 7.8349 19.8291 7.7959C20.4886 7.7244 21.0789 8.20183 21.1504 8.86133C21.2219 9.52083 20.7454 10.1111 20.0859 10.1826C19.4264 10.2541 18.8352 9.77619 18.7637 9.11719L16.1963 8.57715L15.418 12.3213C17.0675 12.3573 18.6721 12.8674 20.0381 13.7979C20.3486 13.5029 20.757 13.3265 21.1865 13.3115C22.156 13.279 22.9669 14.0335 23.0029 15C23.0149 15.6745 22.6357 16.2942 22.0332 16.5957C22.0452 16.7717 22.0452 16.948 22.0332 17.124C22.0332 19.8145 18.9011 21.998 15.0381 21.998C11.1751 21.998 8.04395 19.8115 8.04395 17.124C8.03195 16.948 8.03195 16.7717 8.04395 16.5957C7.86845 16.5182 7.70927 16.4088 7.57227 16.2803C6.86527 15.6178 6.83312 14.5077 7.49512 13.8037C8.15762 13.0967 9.2667 13.0646 9.9707 13.7266C11.3547 12.7901 12.9809 12.277 14.6514 12.25L15.5371 8.08594V8.0791C15.5709 7.92685 15.6914 7.81887 15.834 7.79297ZM12.2031 15C11.5401 15 11.0029 15.5372 11.0029 16.2002C11.0029 16.8632 11.5401 17.4014 12.2031 17.4014C12.8661 17.4014 13.4043 16.8632 13.4043 16.2002C13.4043 15.5372 12.8661 15 12.2031 15ZM17.7617 15C17.0987 15 16.5615 15.5372 16.5615 16.2002C16.5615 16.8632 17.0987 17.4014 17.7617 17.4014C18.4247 17.4014 18.9629 16.8632 18.9629 16.2002C18.9629 15.5372 18.4247 15 17.7617 15ZM12.293 18.9707C12.2203 18.9707 12.1486 18.9957 12.0889 19.0449C11.9514 19.1584 11.9304 19.365 12.0439 19.502C12.8969 20.143 13.9413 20.4708 15.0088 20.4258C16.0768 20.4708 17.1206 20.1435 17.9736 19.502V19.5488C18.1046 19.4203 18.108 19.2057 17.9795 19.0742C17.8515 18.9427 17.6369 18.9399 17.5059 19.0684C16.7754 19.5904 15.8916 19.8473 14.9961 19.7998C14.1016 19.8418 13.222 19.5729 12.5 19.0449C12.439 18.9957 12.3657 18.9707 12.293 18.9707Z" fill="var(--fill-0, #1A1A1A)"/>
</g>
</svg>
