<svg preserveAspectRatio="none" width="100%" height="100%" overflow="visible" style="display: block;" viewBox="0 0 45 45" fill="none" xmlns="http://www.w3.org/2000/svg">
<g id="Cions">
<path id="Vector" d="M17.3664 19.0313H22.4037C22.8637 19.0313 23.3049 18.8486 23.6301 18.5233C23.9554 18.1981 24.1381 17.7569 24.1381 17.2969C24.1381 16.837 23.9554 16.3958 23.6301 16.0705C23.3049 15.7453 22.8637 15.5626 22.4037 15.5626H17.3664C16.9064 15.5626 16.4652 15.7453 16.14 16.0705C15.8147 16.3958 15.632 16.837 15.632 17.2969C15.632 17.7569 15.8147 18.1981 16.14 18.5233C16.4652 18.8486 16.9064 19.0313 17.3664 19.0313ZM39.2324 0H5.76742C4.23952 0.00561385 2.77579 0.61507 1.6954 1.69548C0.615011 2.77589 0.00558404 4.23963 0 5.76754V39.2323C0.00554846 40.7602 0.614959 42.224 1.69535 43.3045C2.77575 44.3849 4.23949 44.9944 5.76742 45H39.2322C40.7601 44.9945 42.224 44.3852 43.3045 43.3048C44.385 42.2244 44.9944 40.7606 45 39.2326V5.76754C44.9945 4.23959 44.385 2.7758 43.3046 1.69537C42.2242 0.614941 40.7604 0.0055194 39.2324 0V0ZM36.8192 21.775L36.7749 27.7947C36.7574 30.1958 35.7932 32.4929 34.0918 34.1872C32.3904 35.8815 30.0893 36.8362 27.6882 36.8438H17.2504C14.8464 36.8394 12.5416 35.8851 10.8382 34.1888C9.13474 32.4925 8.17077 30.1917 8.15634 27.7877V17.2255C8.16928 14.8199 9.13234 12.5168 10.8357 10.8181C12.5391 9.1194 14.8447 8.16263 17.2503 8.15625H23.6037C25.0673 8.4101 26.4563 8.98575 27.6705 9.84166C28.8846 10.6976 29.8935 11.8124 30.6244 13.1056C31.1251 14.0565 31.4034 15.1087 31.4385 16.1829C31.5901 17.3204 31.6699 18.1656 32.1811 18.6341C32.8997 19.2854 35.5725 18.8466 36.1011 19.2605L36.5034 19.5752L36.7484 20.0739L36.8294 20.4734L36.8192 21.775ZM27.6009 25.9688H17.3664C17.1404 25.9619 16.9154 26.0004 16.7046 26.0821C16.4938 26.1638 16.3016 26.287 16.1394 26.4444C15.9771 26.6018 15.8481 26.7902 15.76 26.9983C15.6719 27.2065 15.6265 27.4303 15.6265 27.6563C15.6265 27.8824 15.6719 28.1061 15.76 28.3143C15.8481 28.5224 15.9771 28.7108 16.1394 28.8682C16.3016 29.0256 16.4938 29.1488 16.7046 29.2305C16.9154 29.3122 17.1404 29.3507 17.3664 29.3438H27.601C27.8261 29.3495 28.0502 29.3101 28.2599 29.2278C28.4697 29.1456 28.6608 29.0222 28.8221 28.8649C28.9834 28.7077 29.1116 28.5197 29.1991 28.3121C29.2866 28.1046 29.3317 27.8816 29.3317 27.6563C29.3317 27.431 29.2866 27.208 29.1991 27.0005C29.1116 26.7929 28.9834 26.6049 28.8221 26.4477C28.6608 26.2904 28.4697 26.167 28.2599 26.0848C28.0502 26.0025 27.8261 25.9631 27.601 25.9688H27.6009Z" fill="url(#paint0_linear_0_12)"/>
</g>
<defs>
<linearGradient id="paint0_linear_0_12" x1="45.3814" y1="53.9063" x2="44.5925" y2="-3.0279" gradientUnits="userSpaceOnUse">
<stop offset="0.024" stop-color="#35AB6E"/>
<stop offset="0.189836" stop-color="#206944" stop-opacity="0.9"/>
<stop offset="0.883976" stop-color="#195134"/>
</linearGradient>
</defs>
</svg>
