<svg preserveAspectRatio="none" width="100%" height="100%" overflow="visible" style="display: block;" viewBox="0 0 45 45" fill="none" xmlns="http://www.w3.org/2000/svg">
<g id="Cions">
<path id="Vector" d="M39.375 0H5.625C4.13316 0 2.70242 0.592632 1.64752 1.64752C0.592632 2.70242 0 4.13316 0 5.625V39.375C0 40.8668 0.592632 42.2976 1.64752 43.3525C2.70242 44.4074 4.13316 45 5.625 45H39.375C40.8668 45 42.2976 44.4074 43.3525 43.3525C44.4074 42.2976 45 40.8668 45 39.375V5.625C45 4.13316 44.4074 2.70242 43.3525 1.64752C42.2976 0.592632 40.8668 0 39.375 0V0ZM28.5075 8.2575C28.5045 8.05869 28.5414 7.8613 28.6161 7.67703C28.6908 7.49276 28.8017 7.32537 28.9423 7.18477C29.0829 7.04418 29.2503 6.93325 29.4345 6.85857C29.6188 6.78388 29.8162 6.74696 30.015 6.75C30.4053 6.76132 30.7764 6.92141 31.0525 7.19748C31.3286 7.47356 31.4887 7.84473 31.5 8.235V28.26C31.4551 28.6252 31.2782 28.9614 31.0026 29.2053C30.727 29.4491 30.3717 29.5837 30.0038 29.5837C29.6358 29.5837 29.2805 29.4491 29.0049 29.2053C28.7293 28.9614 28.5524 28.6252 28.5075 28.26V8.2575ZM20.9925 7.4925C20.9925 7.09269 21.1513 6.70925 21.434 6.42654C21.7167 6.14383 22.1002 5.985 22.5 5.985V5.985C22.8998 5.985 23.2833 6.14383 23.566 6.42654C23.8487 6.70925 24.0075 7.09269 24.0075 7.4925V29.25C24.0075 29.6498 23.8487 30.0333 23.566 30.316C23.2833 30.5987 22.8998 30.7575 22.5 30.7575C22.1002 30.7575 21.7167 30.5987 21.434 30.316C21.1513 30.0333 20.9925 29.6498 20.9925 29.25V7.4925ZM13.5 8.2575C13.5449 7.89227 13.7218 7.55606 13.9974 7.31224C14.273 7.06842 14.6283 6.93383 14.9962 6.93383C15.3642 6.93383 15.7195 7.06842 15.9951 7.31224C16.2707 7.55606 16.4476 7.89227 16.4925 8.2575V28.2825C16.4925 28.4794 16.4534 28.6744 16.3773 28.856C16.3013 29.0377 16.1899 29.2024 16.0496 29.3406C15.9093 29.4788 15.743 29.5877 15.5602 29.661C15.3774 29.7343 15.1819 29.7705 14.985 29.7675C14.5947 29.7562 14.2236 29.5961 13.9475 29.32C13.6714 29.0439 13.5113 28.6728 13.5 28.2825V8.2575ZM6.0075 11.25C6.05237 10.8848 6.22928 10.5486 6.50489 10.3047C6.7805 10.0609 7.13577 9.92633 7.50375 9.92633C7.87173 9.92633 8.227 10.0609 8.50261 10.3047C8.77822 10.5486 8.95513 10.8848 9 11.25V24.75C8.99409 25.1459 8.83266 25.5236 8.55059 25.8014C8.26851 26.0793 7.88845 26.235 7.4925 26.235C7.10046 26.2292 6.72611 26.0709 6.44887 25.7936C6.17163 25.5164 6.01331 25.142 6.0075 24.75V11.25ZM38.475 34.1325C33.849 37.5048 28.2203 39.2172 22.5 38.9925C16.7797 39.2172 11.151 37.5048 6.525 34.1325C6.29008 33.8578 6.16169 33.5078 6.16323 33.1463C6.16477 32.7849 6.29614 32.436 6.5334 32.1633C6.77065 31.8906 7.09799 31.7122 7.45576 31.6607C7.81354 31.6091 8.17792 31.6879 8.4825 31.8825C12.5817 34.7453 17.5037 36.1911 22.5 36C27.4999 36.1928 32.4247 34.7383 36.5175 31.86C36.8221 31.6654 37.1865 31.5866 37.5442 31.6382C37.902 31.6897 38.2293 31.8681 38.4666 32.1408C38.7039 32.4135 38.8352 32.7624 38.8368 33.1238C38.8383 33.4853 38.7099 33.8353 38.475 34.11V34.1325ZM38.9925 24.75C38.9476 25.1152 38.7707 25.4514 38.4951 25.6953C38.2195 25.9391 37.8642 26.0737 37.4963 26.0737C37.1283 26.0737 36.773 25.9391 36.4974 25.6953C36.2218 25.4514 36.0449 25.1152 36 24.75V11.25C36.0059 10.8541 36.1673 10.4764 36.4494 10.1986C36.7315 9.92069 37.1116 9.76496 37.5075 9.765C37.9013 9.765 38.2791 9.92145 38.5576 10.1999C38.836 10.4784 38.9925 10.8562 38.9925 11.25V24.75Z" fill="url(#paint0_linear_0_20)"/>
</g>
<defs>
<linearGradient id="paint0_linear_0_20" x1="45.3814" y1="53.9063" x2="44.5925" y2="-3.0279" gradientUnits="userSpaceOnUse">
<stop offset="0.024" stop-color="#35AB6E"/>
<stop offset="0.189836" stop-color="#206944" stop-opacity="0.9"/>
<stop offset="0.883976" stop-color="#195134"/>
</linearGradient>
</defs>
</svg>
