<svg preserveAspectRatio="none" width="100%" height="100%" overflow="visible" style="display: block;" viewBox="0 0 45 45" fill="none" xmlns="http://www.w3.org/2000/svg">
<g id="Cions">
<path id="Vector" d="M22.5 0C18.0499 0 13.6998 1.3196 9.99968 3.79193C6.29957 6.26426 3.41569 9.77828 1.71272 13.8896C0.00974889 18.001 -0.435826 22.525 0.432341 26.8895C1.30051 31.2541 3.44343 35.2632 6.59011 38.4099C9.73679 41.5566 13.7459 43.6995 18.1105 44.5677C22.475 45.4358 26.999 44.9902 31.1104 43.2873C35.2217 41.5843 38.7357 38.7004 41.2081 35.0003C43.6804 31.3002 45 26.9501 45 22.5C45 19.5453 44.418 16.6194 43.2873 13.8896C42.1566 11.1598 40.4992 8.67941 38.4099 6.5901C36.3206 4.50078 33.8402 2.84344 31.1104 1.71271C28.3806 0.58198 25.4547 0 22.5 0V0ZM11.6775 25.5375H7.35751L8.52751 20.115H12.6675C15.3675 20.115 15.9975 21.42 15.9975 22.4775C15.9975 23.94 15.03 25.5375 11.6775 25.5375ZM13.1625 17.3475H8.86501L10.035 11.925H14.175C16.8525 11.925 17.4825 13.2525 17.4825 14.175C17.4825 15.75 16.5375 17.3475 13.1625 17.3475V17.3475ZM21.6 34.065H17.28L18.4725 28.62H22.6125C25.29 28.62 25.92 29.9475 25.92 31.005C25.92 32.4675 24.975 34.065 21.6 34.065V34.065ZM23.1975 25.5375H18.9L20.07 20.115H24.21C26.8875 20.115 27.5175 21.42 27.5175 22.4775C27.5175 23.94 26.5725 25.5375 23.1975 25.5375V25.5375ZM24.75 17.3475H20.385L21.555 11.925H25.695C28.395 11.925 29.025 13.2525 29.025 14.175C29.025 15.75 28.0575 17.3475 24.75 17.3475ZM33.165 29.97H28.8225L29.9925 24.525H34.1325C36.81 24.525 37.4625 25.8525 37.4625 26.91C37.4625 28.3725 36.495 29.97 33.12 29.97H33.165ZM34.785 22.23H30.42L31.5 16.785H35.64C38.34 16.785 38.97 18.1125 38.97 19.035C39.06 20.6325 38.0925 22.23 34.74 22.23H34.785Z" fill="url(#paint0_linear_0_16)"/>
</g>
<defs>
<linearGradient id="paint0_linear_0_16" x1="45.3814" y1="53.9063" x2="44.5925" y2="-3.0279" gradientUnits="userSpaceOnUse">
<stop offset="0.024" stop-color="#35AB6E"/>
<stop offset="0.189836" stop-color="#206944" stop-opacity="0.9"/>
<stop offset="0.883976" stop-color="#195134"/>
</linearGradient>
</defs>
</svg>
