<svg preserveAspectRatio="none" width="100%" height="100%" overflow="visible" style="display: block;" viewBox="0 0 24 24" fill="none" xmlns="http://www.w3.org/2000/svg">
<g id="Frame">
<path id="Vector" d="M16 14V16.2L17.6 17.2" stroke="url(#paint0_linear_0_8)" stroke-width="1.5" stroke-linecap="round" stroke-linejoin="round"/>
<path id="Vector_2" d="M16 4H18C18.5304 4 19.0391 4.21071 19.4142 4.58579C19.7893 4.96086 20 5.46957 20 6V6.832" stroke="url(#paint1_linear_0_8)" stroke-width="1.5" stroke-linecap="round" stroke-linejoin="round"/>
<path id="Vector_3" d="M8 4H6C5.46957 4 4.96086 4.21071 4.58579 4.58579C4.21071 4.96086 4 5.46957 4 6V20C4 20.5304 4.21071 21.0391 4.58579 21.4142C4.96086 21.7893 5.46957 22 6 22H8" stroke="url(#paint2_linear_0_8)" stroke-width="1.5" stroke-linecap="round" stroke-linejoin="round"/>
<path id="Vector_4" d="M16 22C19.3137 22 22 19.3137 22 16C22 12.6863 19.3137 10 16 10C12.6863 10 10 12.6863 10 16C10 19.3137 12.6863 22 16 22Z" stroke="url(#paint3_linear_0_8)" stroke-width="1.5" stroke-linecap="round" stroke-linejoin="round"/>
<path id="Vector_5" d="M15 2H9C8.44772 2 8 2.44772 8 3V5C8 5.55228 8.44772 6 9 6H15C15.5523 6 16 5.55228 16 5V3C16 2.44772 15.5523 2 15 2Z" stroke="url(#paint4_linear_0_8)" stroke-width="1.5" stroke-linecap="round" stroke-linejoin="round"/>
</g>
<defs>
<linearGradient id="paint0_linear_0_8" x1="17.6136" y1="17.8333" x2="17.5014" y2="13.787" gradientUnits="userSpaceOnUse">
<stop offset="0.024" stop-color="#35AB6E"/>
<stop offset="0.189836" stop-color="#206944" stop-opacity="0.9"/>
<stop offset="0.883976" stop-color="#195134"/>
</linearGradient>
<linearGradient id="paint1_linear_0_8" x1="20.0339" y1="7.3925" x2="19.9987" y2="3.8091" gradientUnits="userSpaceOnUse">
<stop offset="0.024" stop-color="#35AB6E"/>
<stop offset="0.189836" stop-color="#206944" stop-opacity="0.9"/>
<stop offset="0.883976" stop-color="#195134"/>
</linearGradient>
<linearGradient id="paint2_linear_0_8" x1="8.0339" y1="25.5625" x2="6.61919" y2="2.87268" gradientUnits="userSpaceOnUse">
<stop offset="0.024" stop-color="#35AB6E"/>
<stop offset="0.189836" stop-color="#206944" stop-opacity="0.9"/>
<stop offset="0.883976" stop-color="#195134"/>
</linearGradient>
<linearGradient id="paint3_linear_0_8" x1="22.1017" y1="24.375" x2="21.8913" y2="9.19256" gradientUnits="userSpaceOnUse">
<stop offset="0.024" stop-color="#35AB6E"/>
<stop offset="0.189836" stop-color="#206944" stop-opacity="0.9"/>
<stop offset="0.883976" stop-color="#195134"/>
</linearGradient>
<linearGradient id="paint4_linear_0_8" x1="16.0678" y1="6.79167" x2="16.0327" y2="1.73012" gradientUnits="userSpaceOnUse">
<stop offset="0.024" stop-color="#35AB6E"/>
<stop offset="0.189836" stop-color="#206944" stop-opacity="0.9"/>
<stop offset="0.883976" stop-color="#195134"/>
</linearGradient>
</defs>
</svg>
