<svg preserveAspectRatio="none" width="100%" height="100%" overflow="visible" style="display: block;" viewBox="0 0 24 24" fill="none" xmlns="http://www.w3.org/2000/svg">
<g id="Quality">
<path id="Vector" d="M20.25 9.75027C20.2538 8.31981 19.8857 6.91293 19.1816 5.66771C18.4776 4.42249 17.4619 3.38173 16.2342 2.64757C15.0065 1.9134 13.609 1.51108 12.1789 1.48007C10.7487 1.44906 9.33512 1.79044 8.07676 2.4707C6.81839 3.15095 5.75852 4.14671 5.00118 5.36025C4.24383 6.57378 3.81503 7.96338 3.75687 9.39267C3.6987 10.8219 4.01317 12.2418 4.6694 13.5129C5.32563 14.7839 6.30108 15.8625 7.50001 16.6428V21.7503C7.50074 21.861 7.52601 21.9703 7.57399 22.0701C7.62197 22.17 7.69148 22.258 7.77751 22.3278C7.86314 22.3985 7.9634 22.4493 8.07105 22.4765C8.17871 22.5037 8.29106 22.5067 8.40001 22.4853L12 21.7503L15.6 22.5003H15.75C15.9489 22.5003 16.1397 22.4212 16.2803 22.2806C16.421 22.1399 16.5 21.9492 16.5 21.7503V16.6578C17.6503 15.9092 18.5957 14.8854 19.2505 13.6793C19.9053 12.4731 20.2488 11.1227 20.25 9.75027V9.75027ZM15 20.8353L12.75 20.3853V17.9628C13.5215 17.8928 14.279 17.7135 15 17.4303V20.8353ZM12 16.5003C11.8011 16.5003 11.6103 16.5793 11.4697 16.7199C11.329 16.8606 11.25 17.0514 11.25 17.2503V20.3853L9.00001 20.8353V16.2453C9.00193 16.2153 9.00193 16.1852 9.00001 16.1553C9.00502 16.1054 9.00502 16.0551 9.00001 16.0053C8.96444 15.9164 8.91647 15.8331 8.85751 15.7578C8.82136 15.7186 8.78113 15.6834 8.73751 15.6528C8.71632 15.6313 8.69377 15.6113 8.67001 15.5928C7.25098 14.7716 6.17932 13.462 5.65513 11.9086C5.13094 10.3551 5.19006 8.66401 5.82145 7.15096C6.45285 5.63791 7.61334 4.40638 9.08626 3.68632C10.5592 2.96626 12.2438 2.80689 13.8256 3.23797C15.4074 3.66905 16.7783 4.66111 17.6822 6.02891C18.5861 7.39672 18.9613 9.04676 18.7378 10.6709C18.5142 12.2951 17.7071 13.7824 16.4673 14.8551C15.2274 15.9278 13.6395 16.5126 12 16.5003V16.5003Z" fill="url(#paint0_linear_0_5)"/>
<path id="Vector_2" d="M16.14 7.70276L13.89 7.08026L12.6225 5.14526C12.5539 5.04316 12.4612 4.95951 12.3527 4.90167C12.2441 4.84383 12.123 4.81358 12 4.81358C11.877 4.81358 11.7559 4.84383 11.6473 4.90167C11.5388 4.95951 11.4461 5.04316 11.3775 5.14526L10.0875 7.07276L7.83748 7.69526C7.72163 7.73398 7.617 7.80042 7.53267 7.88879C7.44834 7.97716 7.38688 8.08479 7.35361 8.20232C7.32035 8.31986 7.3163 8.44373 7.3418 8.56319C7.36731 8.68265 7.42161 8.79406 7.49998 8.88776L8.93998 10.7028L8.84248 13.0203C8.83446 13.1453 8.8579 13.2704 8.91066 13.3841C8.96342 13.4977 9.04383 13.5964 9.14452 13.6709C9.24522 13.7455 9.363 13.7937 9.48711 13.811C9.61121 13.8284 9.73769 13.8144 9.85498 13.7703L12 12.9528L14.175 13.7553C14.2923 13.7994 14.4187 13.8134 14.5429 13.796C14.667 13.7787 14.7847 13.7305 14.8854 13.6559C14.9861 13.5813 15.0665 13.4827 15.1193 13.3691C15.1721 13.2554 15.1955 13.1303 15.1875 13.0053L15.09 10.6878L16.5 8.88776C16.5761 8.7911 16.6273 8.6772 16.649 8.5561C16.6707 8.435 16.6623 8.31041 16.6245 8.19333C16.5867 8.07624 16.5207 7.97025 16.4323 7.8847C16.3439 7.79915 16.2357 7.73667 16.1175 7.70276H16.14ZM13.74 9.99776C13.6302 10.1387 13.5743 10.3143 13.5825 10.4928L13.6425 11.9928L12.2625 11.4828C12.0932 11.4195 11.9068 11.4195 11.7375 11.4828L10.3575 11.9928L10.4175 10.4928C10.4256 10.3143 10.3698 10.1387 10.26 9.99776L9.34498 8.84276L10.7625 8.44526C10.9347 8.39619 11.0837 8.28711 11.1825 8.13776L12 6.91526L12.8175 8.13776C12.9163 8.28711 13.0653 8.39619 13.2375 8.44526L14.655 8.84276L13.74 9.99776Z" fill="url(#paint1_linear_0_5)"/>
</g>
<defs>
<linearGradient id="paint0_linear_0_5" x1="20.3899" y1="26.6609" x2="19.9204" y2="0.0668032" gradientUnits="userSpaceOnUse">
<stop offset="0.024" stop-color="#35AB6E"/>
<stop offset="0.189836" stop-color="#206944" stop-opacity="0.9"/>
<stop offset="0.883976" stop-color="#195134"/>
</linearGradient>
<linearGradient id="paint1_linear_0_5" x1="16.7399" y1="15.6005" x2="16.5876" y2="4.20753" gradientUnits="userSpaceOnUse">
<stop offset="0.024" stop-color="#35AB6E"/>
<stop offset="0.189836" stop-color="#206944" stop-opacity="0.9"/>
<stop offset="0.883976" stop-color="#195134"/>
</linearGradient>
</defs>
</svg>
